<?xml version="1.0" encoding="UTF-8" standalone="no"?>
<svg
   xmlns:dc="http://purl.org/dc/elements/1.1/"
   xmlns:cc="http://creativecommons.org/ns#"
   xmlns:rdf="http://www.w3.org/1999/02/22-rdf-syntax-ns#"
   xmlns:svg="http://www.w3.org/2000/svg"
   xmlns="http://www.w3.org/2000/svg"
   xmlns:sodipodi="http://sodipodi.sourceforge.net/DTD/sodipodi-0.dtd"
   xmlns:inkscape="http://www.inkscape.org/namespaces/inkscape"
   version="1.1"
   x="0px"
   y="0px"
   viewBox="0 0 73.199997 96.400002"
   xml:space="preserve"
   id="svg50"
   sodipodi:docname="noun_PDF_3071298.svg"
   width="73.199997"
   height="96.400002"
   inkscape:version="1.0.1 (3bc2e813f5, 2020-09-07)"><metadata
     id="metadata56"><rdf:RDF><cc:Work
         rdf:about=""><dc:format>image/svg+xml</dc:format><dc:type
           rdf:resource="http://purl.org/dc/dcmitype/StillImage" /></cc:Work></rdf:RDF></metadata><defs
     id="defs54" /><sodipodi:namedview
     pagecolor="#ffffff"
     bordercolor="#666666"
     borderopacity="1"
     objecttolerance="10"
     gridtolerance="10"
     guidetolerance="10"
     inkscape:pageopacity="0"
     inkscape:pageshadow="2"
     inkscape:window-width="1920"
     inkscape:window-height="1002"
     id="namedview52"
     showgrid="false"
     inkscape:zoom="6.864"
     inkscape:cx="35.188811"
     inkscape:cy="65.216317"
     inkscape:window-x="-8"
     inkscape:window-y="-8"
     inkscape:window-maximized="1"
     inkscape:current-layer="svg50" /><g
     id="g44"
     transform="translate(-13.5,-1.8)"><path
       d="m 32.1,38.7 c 2.8,0 4.9,-0.6 6.2,-1.8 1.4,-1.2 2,-3.1 2,-5.6 0,-2.6 -0.7,-4.5 -2,-5.7 C 37,24.4 34.9,23.7 32,23.7 h -6.7 v 20.8 h 4.2 v -5.8 z m -2.6,-11 h 2.4 c 1.4,0 2.4,0.3 3.1,0.8 0.7,0.5 1,1.4 1,2.6 0,1.2 -0.3,2.1 -0.8,2.7 -0.5,0.6 -1.5,0.9 -2.9,0.9 h -2.8 z"
       id="path34" /><path
       d="m 56.8,41.6 c 1.8,-1.9 2.6,-4.4 2.6,-7.7 0,-3.2 -0.9,-5.8 -2.7,-7.6 -1.8,-1.8 -4.4,-2.7 -7.8,-2.7 h -6.7 v 20.8 h 6.5 c 3.6,0.1 6.3,-0.9 8.1,-2.8 z m -3.2,-2.8 c -1,1.1 -2.5,1.6 -4.4,1.6 H 46.5 V 27.7 h 2.4 c 2.1,0 3.7,0.6 4.8,1.7 1,1.1 1.6,2.7 1.6,4.7 -0.1,2 -0.7,3.6 -1.7,4.7 z"
       id="path36" /><polygon
       points="61.7,23.7 61.7,44.5 65.9,44.5 65.9,36.3 74.2,36.3 74.2,32.3 65.9,32.3 65.9,27.8 74.7,27.8 74.7,23.7 "
       id="polygon38" /><path
       d="M 80.2,1.8 H 19.8 c -3.5,0 -6.3,2.8 -6.3,6.3 v 73.8 c 0,3.5 2.8,6.3 6.3,6.3 h 13.9 l -1.9,-1.9 -1.9,-1.9 h -10 c -1.4,0 -2.5,-1.1 -2.5,-2.5 V 8.1 c 0,-1.4 1.1,-2.5 2.5,-2.5 h 60.5 c 1.4,0 2.5,1.1 2.5,2.5 v 73.8 c 0,1.4 -1.1,2.5 -2.5,2.5 h -8.6 l -1.9,1.9 -1.9,1.9 h 12.4 c 3.5,0 6.3,-2.8 6.3,-6.3 V 8.1 C 86.6,4.6 83.7,1.8 80.2,1.8 Z"
       id="path40" /><polygon
       points="59,54.7 41,54.7 41,76 27.9,75.8 50.3,98.2 72.1,76.4 59,76.3 "
       id="polygon42" /></g></svg>
